<svg xmlns="http://www.w3.org/2000/svg" width="800" height="800" viewBox="0 0 800 800">
  <defs>
    <linearGradient id="screen" x1="0" y1="0" x2="1" y2="1"><stop stop-color="#F2B38B"/><stop offset="1" stop-color="#9C5A45"/></linearGradient>
    <radialGradient id="lens"><stop stop-color="#8DD8FF"/><stop offset=".45" stop-color="#26557B"/><stop offset="1" stop-color="#090D12"/></radialGradient>
    <linearGradient id="cloth" x1="0" y1="0" x2="1" y2="1"><stop stop-color="#FFF7E8"/><stop offset="1" stop-color="#F2B38B"/></linearGradient>
    <pattern id="plaid" width="60" height="60" patternUnits="userSpaceOnUse"><rect width="60" height="60" fill="#DDEEFF"/><path d="M0 15h60M0 45h60M15 0v60M45 0v60" stroke="#6D91B3" stroke-width="6"/></pattern>
  </defs>
  <rect width="800" height="800" fill="#FFFFFF"/>
  <rect x="28" y="28" width="744" height="744" rx="38" fill="#FFFFFF" stroke="#EEF1F3" stroke-width="3"/>
  <rect x="55" y="55" width="110" height="42" rx="12" fill="#FF3B30"/><text x="110" y="83" text-anchor="middle" font-family="Arial,'PingFang SC',sans-serif" font-size="22" font-weight="800" fill="white">618 好价</text>
  <circle cx="400" cy="385" r="260" fill="#FFF7E8" opacity=".42"/>
  <rect x="300" y="240" width="200" height="340" rx="50" fill="#9B6B4F" stroke="#75503C" stroke-width="7"/><rect x="335" y="155" width="130" height="95" rx="14" fill="#35383C"/><rect x="350" y="110" width="100" height="55" rx="10" fill="#151719"/><rect x="325" y="345" width="150" height="105" rx="12" fill="#FFF8EF" opacity=".88"/>
  <rect x="58" y="640" width="684" height="112" rx="24" fill="#FFFFFF" stroke="#E8ECEF" stroke-width="3"/>
  <text x="82" y="684" font-family="Arial,'PingFang SC',sans-serif" font-size="25" font-weight="800" fill="#171717">芙丽芳丝净润洗面霜 100g</text>
  <text x="82" y="720" font-family="Arial,'PingFang SC',sans-serif" font-size="16" fill="#6B7280">Freeplus 芙丽芳丝 · 净润洗面霜 · 5 平台可比</text>
  <rect x="615" y="691" width="100" height="36" rx="18" fill="#9C5A45"/><text x="665" y="715" text-anchor="middle" font-family="Arial,'PingFang SC',sans-serif" font-size="15" font-weight="700" fill="white">洁面</text>
</svg>